<mxfile host="app.diagrams.net" agent="Mozilla/5.0 (Windows NT 10.0; Win64; x64) AppleWebKit/537.36 (KHTML, like Gecko) Chrome/129.0.0.0 Safari/537.36" version="24.7.17">
  <diagram name="Página-1" id="KZURtQk_YwQEGqCgf_Zw">
    <mxGraphModel dx="1500" dy="1970" grid="1" gridSize="13" guides="1" tooltips="1" connect="1" arrows="1" fold="1" page="1" pageScale="1" pageWidth="827" pageHeight="1169" math="0" shadow="0">
      <root>
        <mxCell id="0" />
        <mxCell id="1" parent="0" />
        <mxCell id="PoN-1AXLbpRl8SGw6p8o-12" style="edgeStyle=orthogonalEdgeStyle;rounded=0;orthogonalLoop=1;jettySize=auto;html=1;entryX=0;entryY=0.5;entryDx=0;entryDy=0;labelBackgroundColor=none;strokeColor=#E07A5F;fontColor=default;" edge="1" parent="1" source="PoN-1AXLbpRl8SGw6p8o-1" target="PoN-1AXLbpRl8SGw6p8o-2">
          <mxGeometry relative="1" as="geometry" />
        </mxCell>
        <mxCell id="PoN-1AXLbpRl8SGw6p8o-13" value="Autenticação" style="edgeLabel;html=1;align=center;verticalAlign=middle;resizable=0;points=[];labelBackgroundColor=none;fontColor=#393C56;fontSize=16;" vertex="1" connectable="0" parent="PoN-1AXLbpRl8SGw6p8o-12">
          <mxGeometry x="0.0062" y="-2" relative="1" as="geometry">
            <mxPoint as="offset" />
          </mxGeometry>
        </mxCell>
        <mxCell id="PoN-1AXLbpRl8SGw6p8o-1" value="" style="image;html=1;image=img/lib/clip_art/computers/Netbook_128x128.png;labelBackgroundColor=none;fillColor=#F2CC8F;strokeColor=#E07A5F;fontColor=#393C56;" vertex="1" parent="1">
          <mxGeometry x="300" y="170" width="120" height="100" as="geometry" />
        </mxCell>
        <mxCell id="PoN-1AXLbpRl8SGw6p8o-15" style="edgeStyle=orthogonalEdgeStyle;rounded=0;orthogonalLoop=1;jettySize=auto;html=1;labelBackgroundColor=none;strokeColor=#E07A5F;fontColor=default;" edge="1" parent="1" source="PoN-1AXLbpRl8SGw6p8o-2" target="PoN-1AXLbpRl8SGw6p8o-3">
          <mxGeometry relative="1" as="geometry" />
        </mxCell>
        <mxCell id="PoN-1AXLbpRl8SGw6p8o-2" value="" style="image;html=1;image=img/lib/clip_art/computers/Server_Rack_128x128.png;labelBackgroundColor=none;fillColor=#F2CC8F;strokeColor=#E07A5F;fontColor=#393C56;" vertex="1" parent="1">
          <mxGeometry x="680" y="170" width="100" height="100" as="geometry" />
        </mxCell>
        <mxCell id="PoN-1AXLbpRl8SGw6p8o-17" style="edgeStyle=orthogonalEdgeStyle;rounded=0;orthogonalLoop=1;jettySize=auto;html=1;entryX=0.5;entryY=1;entryDx=0;entryDy=0;labelBackgroundColor=none;strokeColor=#E07A5F;fontColor=default;" edge="1" parent="1" source="PoN-1AXLbpRl8SGw6p8o-3" target="PoN-1AXLbpRl8SGw6p8o-1">
          <mxGeometry relative="1" as="geometry" />
        </mxCell>
        <mxCell id="PoN-1AXLbpRl8SGw6p8o-3" value="" style="image;html=1;image=img/lib/clip_art/computers/Software_128x128.png;labelBackgroundColor=none;fillColor=#F2CC8F;strokeColor=#E07A5F;fontColor=#393C56;" vertex="1" parent="1">
          <mxGeometry x="675" y="360" width="90" height="60" as="geometry" />
        </mxCell>
        <mxCell id="PoN-1AXLbpRl8SGw6p8o-18" style="edgeStyle=orthogonalEdgeStyle;rounded=0;orthogonalLoop=1;jettySize=auto;html=1;verticalAlign=middle;startArrow=classic;startFill=1;labelBackgroundColor=none;strokeColor=#E07A5F;fontColor=default;" edge="1" parent="1" source="PoN-1AXLbpRl8SGw6p8o-4" target="PoN-1AXLbpRl8SGw6p8o-2">
          <mxGeometry relative="1" as="geometry">
            <Array as="points">
              <mxPoint x="730" y="-30" />
            </Array>
          </mxGeometry>
        </mxCell>
        <mxCell id="PoN-1AXLbpRl8SGw6p8o-19" value="Endpoint veículos" style="edgeLabel;html=1;align=center;verticalAlign=middle;resizable=0;points=[];labelBackgroundColor=none;fontColor=#393C56;" vertex="1" connectable="0" parent="PoN-1AXLbpRl8SGw6p8o-18">
          <mxGeometry x="-0.54" y="1" relative="1" as="geometry">
            <mxPoint as="offset" />
          </mxGeometry>
        </mxCell>
        <mxCell id="PoN-1AXLbpRl8SGw6p8o-4" value="" style="image;html=1;image=img/lib/clip_art/computers/Software_128x128.png;labelBackgroundColor=none;fillColor=#F2CC8F;strokeColor=#E07A5F;fontColor=#393C56;" vertex="1" parent="1">
          <mxGeometry x="390" y="-70" width="80" height="80" as="geometry" />
        </mxCell>
        <mxCell id="PoN-1AXLbpRl8SGw6p8o-5" value="" style="image;html=1;image=img/lib/clip_art/people/Suit_Man_Blue_128x128.png;labelBackgroundColor=none;fillColor=#F2CC8F;strokeColor=#E07A5F;fontColor=#393C56;" vertex="1" parent="1">
          <mxGeometry x="70" y="160" width="100" height="110" as="geometry" />
        </mxCell>
        <mxCell id="PoN-1AXLbpRl8SGw6p8o-8" value="email: administrador@teste.com" style="text;html=1;align=left;verticalAlign=middle;resizable=0;points=[];autosize=1;strokeColor=none;fillColor=none;labelBackgroundColor=none;fontColor=#393C56;" vertex="1" parent="1">
          <mxGeometry x="70" y="100" width="200" height="30" as="geometry" />
        </mxCell>
        <mxCell id="PoN-1AXLbpRl8SGw6p8o-9" value="senha: 12356" style="text;html=1;align=left;verticalAlign=middle;resizable=0;points=[];autosize=1;strokeColor=none;fillColor=none;labelBackgroundColor=none;fontColor=#393C56;" vertex="1" parent="1">
          <mxGeometry x="70" y="130" width="100" height="30" as="geometry" />
        </mxCell>
        <mxCell id="PoN-1AXLbpRl8SGw6p8o-10" value="" style="edgeStyle=segmentEdgeStyle;endArrow=classic;html=1;curved=0;rounded=0;endSize=8;startSize=8;sourcePerimeterSpacing=0;targetPerimeterSpacing=0;labelBackgroundColor=none;strokeColor=#E07A5F;fontColor=default;" edge="1" parent="1" target="PoN-1AXLbpRl8SGw6p8o-1">
          <mxGeometry width="100" relative="1" as="geometry">
            <mxPoint x="180" y="200" as="sourcePoint" />
            <mxPoint x="280" y="240" as="targetPoint" />
            <Array as="points">
              <mxPoint x="230" y="200" />
              <mxPoint x="230" y="240" />
            </Array>
          </mxGeometry>
        </mxCell>
        <mxCell id="PoN-1AXLbpRl8SGw6p8o-16" value="Pegar os dados do usuário e retornar JWT&lt;div style=&quot;font-size: 15px;&quot;&gt;POST / login[email, senha]&lt;br style=&quot;font-size: 15px;&quot;&gt;POST administrador/criar[Perfil(adm,editor)]&lt;/div&gt;" style="text;html=1;align=center;verticalAlign=middle;resizable=0;points=[];autosize=1;strokeColor=none;fillColor=none;labelBackgroundColor=none;fontColor=#393C56;fontSize=15;" vertex="1" parent="1">
          <mxGeometry x="560" y="408" width="320" height="70" as="geometry" />
        </mxCell>
        <mxCell id="PoN-1AXLbpRl8SGw6p8o-25" value="" style="edgeStyle=segmentEdgeStyle;endArrow=classic;html=1;curved=0;rounded=0;endSize=8;startSize=8;sourcePerimeterSpacing=0;targetPerimeterSpacing=0;strokeColor=#E07A5F;fontColor=#393C56;fillColor=#F2CC8F;startArrow=classic;startFill=1;" edge="1" parent="1" target="PoN-1AXLbpRl8SGw6p8o-1">
          <mxGeometry width="100" relative="1" as="geometry">
            <mxPoint x="660" y="-30" as="sourcePoint" />
            <mxPoint x="360" y="120" as="targetPoint" />
            <Array as="points">
              <mxPoint x="660" y="80" />
              <mxPoint x="360" y="80" />
            </Array>
          </mxGeometry>
        </mxCell>
        <mxCell id="PoN-1AXLbpRl8SGw6p8o-26" value="com o Token -Dados do veículo" style="edgeLabel;html=1;align=center;verticalAlign=middle;resizable=0;points=[];strokeColor=#E07A5F;fontColor=#393C56;fillColor=#F2CC8F;fontSize=14;" vertex="1" connectable="0" parent="PoN-1AXLbpRl8SGw6p8o-25">
          <mxGeometry x="0.2328" y="1" relative="1" as="geometry">
            <mxPoint as="offset" />
          </mxGeometry>
        </mxCell>
        <mxCell id="PoN-1AXLbpRl8SGw6p8o-27" value="GET / veiculos [lista paginada]&lt;div style=&quot;font-size: 15px;&quot;&gt;GET / veiculos/1[veiculo]&lt;/div&gt;&lt;div style=&quot;font-size: 15px;&quot;&gt;POST / veiculos[cadastrar]&lt;/div&gt;&lt;div style=&quot;font-size: 15px;&quot;&gt;PUT / veiculos/1[alterar]&lt;/div&gt;&lt;div style=&quot;font-size: 15px;&quot;&gt;DELETE / veiculos/[Apagar]&lt;/div&gt;" style="text;html=1;align=left;verticalAlign=middle;resizable=0;points=[];autosize=1;strokeColor=none;fillColor=none;fontColor=#393C56;fontSize=15;" vertex="1" parent="1">
          <mxGeometry x="335" y="-197" width="230" height="100" as="geometry" />
        </mxCell>
      </root>
    </mxGraphModel>
  </diagram>
</mxfile>
